/* XPM */
static char * adl_icon_xpm[] = {
"48 48 16 1",
".	c #100E0E",
"+	c #14A113",
"@	c #9B8D8D",
"#	c #25BD22",
"$	c #618E51",
"%	c #45473D",
"&	c #54D955",
"*	c #6D595B",
"=	c #03D605",
"-	c #A7E9A5",
";	c #F4F3F5",
">	c #1D6E1B",
",	c #363233",
"'	c #8F7478",
")	c #53A748",
"!	c #B6B2B4",
"@@@@@@@@@@@@@@@@@@@@@@@@@@@@@@@@@@@@@@@@@@@@@@@@",
"@''''!!!'''''''''''@!!@'''''!!!!!!!!!!!!!!!!@''@",
"@'@'@;;;@''@'@''@''!;;!''@'@;;;;;;;;;;;!@!@@@''@",
"@'''!;;;!''''''''@!;;;!''''!;;;;;;;;;;@,.,,*'@'@",
"@'''!;;;;@'@'@'''';;;;!%%,,';;;;;;;;;;*...,%'''@",
"@@'@;;;;;!**''@''!;;;;@,...,;;;;;;;!!'....%%'''@",
"@'*%@*%,....,%*'';;;;;@.....@;;;;;!@'%,...,,''@@",
"'*,...........,%!;;;;;@....,';;;!'''',,..,,%'''@",
"@',.............';;;;;'....%,!;;;;!@,....,.,'@'@",
"@*..,..,%,.......;;;;;%,...,.@;;;;;;%,..,%,,'''@",
"@'..*,.@;;@*.....*;;;;%......*-;;;;@,,%,.,..*@'@",
"@'%.*,%-;;;-%.....;;;;,....,.%';;;;%.,@'%%.,*''@",
"@'%**..;;;;;!,%...!;;!%..,,.,,*-;;!,.*!!%,,,*''@",
"@'%*,,%!;;;;;',...@;;!%,.,*...%!;!'.,'!*,,,.*''@",
"@'%%,,*!;;;;;-*...';;!,%,%@%...'!!,.,*'*,...%'@@",
"@'',,+))$;;;;;*...*;;!,,,*!@%..,*,...'''%,,.%''@",
"@'@,*======&;;*...';;@>>>$!&*.......,'$$>>,.,''@",
"@*'.$=======-;%..,$&=========#.....=======,.%*'@",
"@@@.+=======)'...'#============>...=======,..%'@",
"@!',+========...*'#=============>.'======+,,%%'@",
"@!'*====)====%.,''$====+$#=======*!======+***''@",
"'-%>====.+===+%*'')====#!;-======-;&=====#'''''@",
"@!,>===+,>====@'''$====&;;;&=====&;&=====)'@''@@",
"@!,>===+.,#===)''@$====&;;;&=====&;&=====-!@'''@",
"@%.====,.*#===#'''@====#@;;&=====#'#=====-;;'''@",
"@%%=====&&&====-!''====+*!)======+,+=====-;!'''@",
"@')============)**%====#%$#======,,+=====;;;@''@",
"@'#======&#====='%.====+#=======#,.+=====;;;@''@",
"@'#=====-**#====%$.=============>..+=====&&&&##@",
"@'======),@+====+,%+===========+..,#==========#@",
"@)======@'*,=====.*+==========+,.,*)==========)@",
"@)======%-'.=====+.+========#&@,,*'#==========#@",
"@#==&--;.!*,*$$$>,.+=======&;,*,*'')==========#@",
"@$''-;;;%'**@'*,...$-&&$>%.@**,%!!'$---------@'@",
"@'@@;;;;%%@!!@*%..*!;;!%%,......@!'!;;;;;;;;;@'@",
"@''@;;;;@*@!@'%..,!;;;!,,,..,..,%@!;;;;;;;;;;!'@",
"@''!;;;;;'*'*,..,,;;;;!%.,.*@',,,,@;;;;;;;;;;!'@",
"@'@!;;;;;'**%..,'@;;;;!,.,,!!.*,,,,';;;@;;;;;;'@",
"@'';;;;;;;**..,'!!;;;;!,.,,!-*,%.,*.*@@';;;;;!'@",
"@'@;;;;;;;!,.,*@;;;;;;@,%,*;!*,,%,'*..,*;;;;;;'@",
"@'@;;;;;;;',*!@!!-;;;;',',*;!@'%,,*,.,%.!;;;;;@@",
"@'!;;;;;;',,!!@@@@,';-%*@%*;!'''%,.,,,*'!;;;;;@@",
"@'!;;;;;!',*@*''*@%'!@%'@''-@''''%...%*'@;;;;;!@",
"@';;;;;;%.,*'*,.,,*!@''@!!;!'@'@@'*%*'''@;;;;;!@",
"@';;;;;;%@!!@@@@@@!'@'-;;!;;@''''@''''''';;;;;;'",
"@@;;;;;;!;;;;;;;-@'''@;;;;;!'''@'''@''@''!;;;;!@",
"@@;;;;;;;;-;!!!''''''@!!;!!!''''@@'@'''''@!!!!!@",
"@@@@@@@@@@@@@@@@@@@@@@@'@@@@@@@'@@@@@@@@@@@'@'@@"};
