/* XPM */
static char * dm2k_faceplate_xpm[] = {
"48 48 16 1",
".	c #100E12",
"+	c #9B8D8E",
"@	c #565053",
"#	c #333036",
"$	c #0B12AB",
"%	c #8E7479",
"&	c #2D2ED3",
"*	c #030EFB",
"=	c #87585E",
"-	c #D5D1D6",
";	c #FAFAFC",
">	c #B4B1BD",
",	c #4545D9",
"'	c #7678E4",
")	c #5C58D1",
"!	c #523A3D",
"++++++++++++++++++++++++++++++++++++++++++++++++",
"+%%%%>>>%%%%%%%%%%%+>>+%%%%%>>>>>>>>>>>>>>>>+%%+",
"+%+%+;;;+%%+%+%%+%%-;;>%%+%+;;;;;;;;;;;>+>+++%%+",
"+%%%>;;;>%%%%%%%%%>;;;>%%%%>;;;;;;;;;;+!.##=%+%+",
"+%%%>;;;;+%+%+%%%%-;;;>!!##%;;;;;;;;;-@...#!%%%+",
"++%+-;;;;>==%%++%>;;;;+#...#-;;;;;;->%#...!@%%%+",
"+%=@+@@#....#!=%%-;;;;+#....+;;;;->%%!#..###%%++",
"%=#...........#@>;;;;;+....#%-;;-%%%%#...##!%%%+",
"+%#.............%;;;;;%....@#>;;;;>+!.....##%+%+",
"+=..#..#!#.......-;;;;!#..##.+;;;;;;@#..#!##%%%+",
"+%..=##+;-+@.....%;;;;##.....@-;;;;+##@###..=+%+",
"+%@.%.@-;;;-@.....-;;;#....#.@%;;;;@.#+%!!##=%%+",
"+%!@@..-;;;;>#!...>;;>##.##.##@-;;+!.@-+@###@%%+",
"+%@@!#!-;;;;;%#...+;;>!#.!@...@>--%.#%>%###.=%%+",
"+%@@##@>-;;;;-@...%;;+!##@+@...%->..#@%=.#..@%++",
"+%%###@++-;;;;%...@;;>###@>+!..#@#...%%%!##.!%%+",
"+%+#@.!>%%>;;-@...+-;+@.@=--@.......!%%%!#..!%%+",
"+%%#@&$,))%>;;!..#%-;+@.#&,)$$$$....))@)###.#=%+",
"+%+.#*****@%+%...,&,)@@.$*******.*********$.#!%+",
"+>'#$******%@...****&#@.#*******.$**********#@%+",
"+>%@$******$...******%#.)*******&&*****&$****=%+",
"+-@.********.#*******@!%'**&',&&'>****)-%$***&%+",
"+>#.********$$*******)+->**);;;;;>****);;&****++",
"+>#.***$********&****,-;>**,>>-;;>****);+*****%+",
"+@.$***.********%****&++)*****&++%************%+",
"+!#$***'+******'>*****%=!*****&%@#***********)%+",
"+%%****>;,*****%@*****%@&*****&%!.**********,%%+",
"+%%****>;>****,%=*****@@#***>;>=##*****)))'-+%%+",
"+%)****>-%***&>%#&****,#&***>;-!..$****-;;;;>%%+",
"+%,****>>#%**-;-#$****&##***>;-#..$****>;;;;>%%+",
"+%=,&))>+)%.';;;#.$$**,.))**>;@!.#&****);;;;>%%+",
"+%%%>;;;@-%.>>>-#%..>;>!@%#'->+##==@);;;;;;;-%%+",
"+%%%-;;;.>%#====#..@-;>@@@.--!@#=%%%>;;;;;;;-+%+",
"+%%%-;;;#%=@+%=!...=;;-@@@.+@@##>>%%;;;;;;;;;+%+",
"+%++;;;;!@%>>+=!..@-;;>@##..#...+>%>;;;;;;;;;+%+",
"+%%+;;;;+=+>+%!#.#>;;;>#!#...#.#!>+;;;;;;;;;;>%+",
"+%+>;;;;-%=%=!..#!-;;;>#.##@+%####+;;;;;;;;;;>%+",
"+%%>;;;;;+==!..#%+;;;;>#.##>>#@####%;;-+;;;;;-%+",
"+%%-;;;;;-==..#+>-;;;;>#.##>-@#!.!@.@++%-;;;;-%+",
"+%+;;;;;;;>!.#=+-;;;;;+#@#@;-%!#@#%@..!=-;;;;;%+",
"+%+;;;;;;;%#@>+>>-;;;;%#%#@;>%%!##@@.#@#>;;;;;++",
"+%>;;;;;;%##>>++++.%;-!%+@@;>+%%@#.###=%>;;;;;++",
"+%>;;;;;>%#@+%%%@+@%-+@@+%%-+%%%%@..##@%+;;;;;>+",
"+%-;;;;;!.#@@%#.#!@>+%%+>>--%+%+%%=!=%%%%;;;;;>+",
"+%;;;;;;!+>>>++>++>%%%-;;-;-+%%%%+%%%%%+%-;;;;-+",
"++;;;;;;-;;;;;;;-+%%%+;;;;;-%+%+%%%+%%+%%>;;;;-+",
"++;;;;;;-;--->>%%%%%++>>->>+%%%+%+%+%%%+%+>>>>++",
"+++++++++++++++++++++++%+++++++++++++++++++%+%++"};
