/* XPM */
static char * dm2k_icon_xpm[] = {
"48 48 16 1",
".	c #070607",
"+	c #998989",
"@	c #4F4747",
"#	c #726F6F",
"$	c #D4D0D1",
"%	c #2E2828",
"&	c #805A59",
"*	c #B7B2B3",
"=	c #523B3B",
"-	c #FBFBF9",
";	c #977778",
">	c #1C1919",
",	c #5F5858",
"'	c #A14C4A",
")	c #9E9897",
"!	c #3B3838",
")++++++++++++++++++++++++++++++++++++++++++++++)",
"+;;;;***;;;;;;;;;;;+**+;;;;;****************+;;+",
"+;+;)---+;;+;+;;+;;$--*;;+;)-----------*)*+)+;;+",
"+;;;*---*;;;;;;;;;*---*;;;;*----------)!>%%,;+;+",
"+;;;*----+;+;+;;;;$---*=!%%;---------$,...!@;;;+",
");;+$----*&&#;+;;*----)%>..%$------$*#%...=@#;;+",
"+;&@+,@%...>%=&;;$----)>...>)----$*;;@%>.%%=;;++",
";&!.>.........%@*-----).>>.!#$--$;;;;%%..%%!;;;+",
"+#%.............#-----#.>.>@!*----*+=.>.>%%%;+;+",
"+&>.!>.!@!%.....>$----@%..>!.)------@%>.%=%%;;;+",
"+;>.#%%)-$),>>...#----!%..>.>@$----)!%@%%!>>&+;+",
"+;@>#>@$---$,.>..>$---!...>%>@#----@>%);@=>%&;;+",
"+;=@,>>$----*%@>..*--*!%.%!>>%,$--)!>,$)@!%%,;;+",
"+;@,!%!$-----#!>..)--*@!>!,>..@*$$#>%#*#%%%>,;;+",
"+;@@!!,*$----$,...#--)!!%@+@>.>#$*>.%,;&%%>.@;++",
"+;#!!>,)+$----#..>,--*!%!,*+@..%,%..>#;#=%%.=;;+",
"+;+%,>!);;*--$#..>;$-)@>,&$$,...>..>=;;;=%%.=;;+",
"+##>#!,+;;;*--@..!;$-+,.%;$-,!.....>;;;;=%%.!,;+",
"++)>@>!#;;;;+#...;;*-@,.%+--*@.....#;;;;@>=.%@;+",
"+*#!>!.;;;;#,>..,;;)-!@.@+---@....#$$+;;&>=%!@;+",
"+*#,.!.#+;&%>..@;;;+$#%>#*---+%>@#$---*;&=,&&;;+",
"+$,..>.>..>..%@&;;+;*#@#*$---$)+*------$;#;;;;;+",
"+*!....>%%>>%=;;;;;;##+$-----------------);;;;++",
")*!.....>%>%@#;;;+;;+*$--------------$----*+;;;+",
"+@>.....>,+***+;;;;;+)))+$---*)))+#@@!#)$--$;;;+",
"+@%!@,)*$------$*;#;;;#&&*))-*;;,!=%%=;+---$;;;+",
"+;;;;*-----$*++#,,@,;;#,@#+)--;;=>%>!&;*----+;;+",
"+;;;;$----)#,,###@>,+;;@!,,+--*&%%>%,;+-----+;;+",
"+;+;;$--$#,,,$*#!#>!*)&!=#,)--$=>>.@;;*-----*;;+",
"+;;++---*%+!*--$%!@>*-;%@#@)--$%>.=;;+------*;;+",
"+;;;)---)##>$---!.,.*-$>#)@*--,!.%&;;*------*;;+",
");;;*---@$#.***$!#..*-$!@+%)-*+!%&;;+-------$;;+",
"+;;;$--->*#%''&&!>.,$-*,@,>$$@,%#;;;*-------$+;+",
"+;;;$---!#&,);'=>.>#--$,@@>),,%!**;;---------+;+",
"+;++----@@+**+&=>.,$--*@!%..%>.>+*;*---------+;+",
"+;;)----+&+*);=>>>*---*!!!.>>>>%!))----------*;+",
"+;;*----$;';'=>.%=$---*!>!>,+#%%!!)----------*;+",
"+;;*-----+''=>.!;+----*%>%%**%,%!%%#--$+-----$;+",
"+;;$-----$&&>.%+*$----*%>!%*$,%@>!,>@)+;$----$;+",
"+;+-------*=.%&)$-----+%@!,-$#!!@!#,>.!&$-----;+",
"+;+-------#%,*+**$----#!#%,-*;;=%!,!>%@%*-----++",
"+;*------#!!**+))+>#-$@#+@,-*;;;@%>%%%&;*-----)+",
"+;*-----*#%,+###,+,#$+@#+##$+;;;;@>.%=,;+-----*+",
"+;$-----@.%,##%>%!,*);#)**$$;+;+;;&@&#;;;-----*+",
"+;------@+**)))))))#;;$--$-$+;;;;+;;;;;;;$----$+",
"++------$-------$+;;;+-----$;;;+;;;;;;+;;*----$+",
"+)------$-$$$**;#;;;;+**$**);;;;;+;+;;;;;+****)+",
")++++++)++))+++++++++++;+++++++++++++++++++;+;+)"};
